<svg version="1.1" id="Layer_1" xmlns="http://www.w3.org/2000/svg" x="0" y="0" viewBox="0 0 595.28 841.89" xml:space="preserve"><style>.st0{fill:#1c75bc;stroke-width:1.7972;stroke-miterlimit:10}.st0,.st1{stroke:#8bc25c}.st1,.st2{stroke-width:1.7972;stroke-miterlimit:10}.st1,.st2{fill:none}.st2{stroke:#004b67}</style><path class="st0" d="M185.41 387.48c.35 38.53.35 78.58 0 117.86m4.94 11.1c-.55-15.78-1.31-31.47-2.09-47.12l1.64 46.86c.15.08.3.17.45.26z"/><path class="st0" d="M188.26 469.31l-2.85-81.83c.17 27.41 1.51 54.59 2.85 81.83z"/><path class="st0" d="M194.65 518.92c-2.93-43.91-5.75-87.47-9.24-131.42l9.19 131.4c.01-.01.03 0 .05.02z"/><path class="st0" d="M194.57 474.73c-2.85-29.25-5.73-58.39-9.17-87.24l9.17 87.24zm4.84 46.03l-4.83-46.02c1.5 15.36 2.98 30.75 4.53 46.15.1-.05.19-.1.3-.13zm4.72.01L185.4 387.49c6.28 44.78 12.34 88.15 18.35 133.15.13.04.26.08.38.13zm5.12.6c-7.9-44.78-16.07-89.67-23.84-133.89L209 521.32c.09.01.16.04.25.05z"/><path class="st0" d="M213.45 523.11c.29.05.58.11.84.2l-28.88-135.83c6.61 41.03 17.87 79.83 25.38 122.39.84 4.45 1.74 8.86 2.66 13.24z"/><path class="st1" d="M185.41 387.48l33.84 135.53m-33.84-135.53l39.6 138.13m-39.6-138.13l45.43 139.83m-45.43-139.83l50.26 138.12m-50.26-138.12l55.8 138.13m-55.8-138.13l61.84 138.92m-61.84-138.92l67.69 138.81m-67.69-138.81l73.45 138.13m-73.45-138.13l79.94 138.48m-79.94-138.48L272.4 526.7m-86.99-139.22l93.16 138.13m-93.16-138.13l100.31 138.07M185.41 387.48l107.64 137.78M185.41 387.48l114.31 136.24M185.41 387.48l122.91 136.49M185.41 387.48l133.82 138.6m-133.82-138.6l142.41 137.53M185.41 387.48l153.35 138.1m-153.35-138.1l158.66 133.14M185.41 387.48L352 517.64M185.41 387.48l187.85 136.49M185.41 387.48l192.5 129.85m-192.5-129.85l196.91 123.05M185.41 387.48l201.09 116.1m-201.09-116.1L390.43 496.5M185.41 387.48l208.7 101.8m-208.7-101.8l212.12 94.45m-212.12-94.45l215.28 86.99m-215.28-86.99L403.6 466.9m-218.19-79.42l220.83 71.76m-220.83-71.76l223.21 64.01m-223.21-64.01l225.3 56.17m-225.3-56.17l227.12 48.29m-227.12-48.29l228.66 40.33m-228.66-40.33l229.94 32.32m-229.94-32.32l230.93 24.28m-230.93-24.28l231.63 16.21m-231.63-16.21l232.05 8.11m-232.05-8.11H417.6"/><path class="st0" d="M176.99 387.48h8.41c-2.79-.01-5.62-.03-8.41-.04v.04zm-.02.34c2.82-.11 5.62-.21 8.44-.33l-8.44.3v.03z"/><path class="st0" d="M176.92 388.21c2.83-.24 5.66-.48 8.49-.73l-8.47.59c-.01.05-.02.1-.02.14zm-.04.21c2.84-.31 5.68-.61 8.52-.93l-8.51.89c.01.01-.01.03-.01.04zm-.05.27l8.57-1.2c-2.85.39-5.71.79-8.57 1.19v.01z"/><path class="st0" d="M176.75 389.03c2.88-.51 5.77-1.03 8.66-1.55l-8.65 1.53c-.01.01-.01.01-.01.02zm-.08.8c2.92-.7 5.83-1.48 8.74-2.35l-8.75 1.86c-.03.08-.05.14-.08.21.03.11.05.2.09.28z"/><path class="st0" d="M176.62 389.68c0 .01.01.01.01.03 2.93-.74 5.86-1.48 8.77-2.22l-8.78 2.19zm.09.3c.01.03.01.05.03.06 2.89-.85 5.78-1.69 8.67-2.55l-8.7 2.49z"/><path class="st0" d="M176.8 390.28c.01.05.01.09.03.14 2.87-.98 5.72-1.95 8.57-2.94l-8.6 2.8z"/><path class="st0" d="M176.82 390.43c.01.05.03.11.04.16l8.55-3.1c-2.87.97-5.72 1.96-8.59 2.94z"/><path class="st0" d="M176.92 390.91c0 .04.01.06.01.1 2.83-1.18 5.66-2.35 8.47-3.53l-8.48 3.43z"/><path class="st0" d="M176.95 391.12c0 .04.01.09.01.13l8.45-3.75c-2.81 1.07-5.63 2.32-8.46 3.62z"/><path class="st0" d="M185.41 387.48l-8.42 4.11v.01c2.8-1.37 5.61-2.75 8.42-4.12zm0 0c-2.82 1.44-5.61 2.9-8.41 4.36v.11l8.41-4.47zm-8.42 4.87l8.42-4.86c-2.8 1.59-5.61 3.2-8.41 4.79-.01.03-.01.04-.01.07z"/><path class="st0" d="M176.96 392.76l8.45-5.28c-2.82 1.69-5.62 3.39-8.42 5.08-.02.08-.03.14-.03.2zm-.06.47l8.51-5.75c-2.84 1.83-5.66 3.65-8.47 5.48-.02.1-.03.18-.04.27zm-.12.52l8.62-6.26c-2.88 2.05-5.75 4.11-8.6 6.15 0 .04 0 .07-.02.11z"/><path class="st0" d="M176.58 394.4c2.94-2.3 5.87-4.62 8.82-6.91l-8.81 6.88c-.01.01-.01.02-.01.03z"/><path class="st0" d="M176.21 395.24c3.07-2.59 6.15-5.17 9.2-7.76l-9.17 7.7a.11.11 0 00-.03.06z"/><path class="st0" d="M185.41 387.48l-9.27 8.36c0 .04.01.09.01.13 3.11-2.82 6.2-5.64 9.26-8.49zm0 0l-8.01 7.74"/><path class="st0" d="M176.18 397.03l9.21-9.55c-3.1 3-6.17 6.03-9.22 9.09.03.16.03.31.01.46zm9.23-9.55c-2.29 2.54-4.58 5.09-6.87 7.64"/><path class="st0" d="M176.05 398.63l9.35-11.15c-3.14 3.57-6.25 7.16-9.35 10.75-.01.06-.03.13-.05.19.02.08.03.14.05.21zm9.36-11.15c-3.07 3.93-6.16 7.86-9.25 11.8v.04l9.25-11.84z"/><path class="st0" d="M176.18 400.24c3.07-4.24 6.16-8.51 9.21-12.75l-9.2 12.69c.01.01-.01.03-.01.06zm-.08 1.05c.04.2.06.41.08.61 3.15-4.78 6.25-9.56 9.24-14.41l-9.32 13.8z"/><path class="st0" d="M176.18 402.05c0 .06 0 .13.01.19l9.21-14.76c-3.08 4.86-6.15 9.71-9.22 14.57zm-.15 2.15c3.13-5.54 6.26-11.11 9.37-16.71l-9.3 16.11c-.03.16-.06.31-.1.46.02.04.02.09.03.14zm9.38-16.72c-2.44 4.59-4.88 9.19-7.33 13.78m7.33-13.78c-2.15 4.73-4.66 9.74-7.36 15.09m7.36-15.09c-2.15 4.73-4.66 9.74-7.33 16.46m7.33-16.46c-2.15 5.98-5.91 12.24-7.32 18.11m7.32-18.11c-2.15 5.98-4.66 13.49-7.31 20.08m7.31-20.08c-3.4 7.23-4.66 14.74-7.36 22.64m7.36-22.64c-3.4 8.49-4.66 17.25-7.35 25.63m7.35-25.63c-2.15 9.74-4.66 21-7.77 31.15m7.77-31.15c-2.15 12.24-4.66 26.01-8.1 38.09m8.1-38.09c-3.4 14.74-4.66 31.02-8.15 46.24m-.38 14.42c-.4 2.6-.78 5.19-1.18 7.8.01.05.04.09.05.14l1.13-7.94zm8.53-60.66c-3.4 18.5-5.91 36.02-7.77 55.3m-.15 20.02l-.94 8.92c.05.13.09.26.14.39.26-3.1.55-6.2.8-9.31zm7.92-75.32c-2.15 23.51-5.91 46.04-7.36 70.02m7.36-70.02c-3.4 31.02-2.15 62.31-6.58 94.11"/><path class="st0" d="M182.02 484.35l3.38-96.85c-1.53 31.72-2.59 64.18-3.58 96.56.07.09.15.19.2.29z"/><path class="st2" d="M185.85 387.48c.5-43.34.5-85.9.18-129.27m-.18 129.27c-.75-43.34 5.51-85.9 5.44-129.8m-5.44 129.8c1.75-43.34 5.51-85.9 9-130.15m-9 130.15c1.75-43.34 10.51-87.15 13.32-130.41m-13.32 130.41c4.46-33.67 9.06-67.31 14.01-100.91 1.43-9.68 2.88-19.36 4.36-29.03m-18.37 129.94c6.26-33.66 11.31-67.53 17.27-101.23 1.69-9.51 3.44-19.03 5.32-28.5m-22.59 129.73c9.26-43.34 19.28-85.9 27.81-129.37m-27.81 129.37c9.26-43.34 23.03-85.9 32.68-129.57m-32.68 129.57c14.17-47.41 24.48-88.5 39.08-136.27m-39.08 136.27c15.42-48.66 30.25-91.78 45.11-138.82m-45.11 138.82c15.42-48.66 31.18-83.22 47.96-131.76"/><path class="st2" d="M185.85 387.48c1.65-7.36 5.41-13.62 7.91-21.13 16.27-41.3 30.85-67.58 47.29-109.01"/><path class="st2" d="M185.85 387.48c2.9-3.6 2.9-7.36 4.16-11.11 21.28-45.06 35.1-77.86 55.2-122.34m-59.36 133.45c22.93-48.66 42.56-85.14 65.34-133.96"/><path class="st2" d="M185.85 387.48c4.16-8.61 7.91-17.37 12.92-26.13 23.78-38.8 32.98-66.78 56.49-105.63m-69.41 131.76c26.69-48.66 52.89-89.58 79.67-137.99m-79.67 137.99c29.19-48.66 52.02-82.68 82.33-131.76m-82.33 131.76c15.42-22.38 65.14-96.09 82.61-122.6"/><path class="st2" d="M185.85 387.48c4.16-8.61 12.92-14.87 16.67-23.63 3.75-6.26 10.01-12.52 15.02-18.77 26.28-35.05 32.17-45.81 56.65-79.07m-88.34 121.47c37.95-48.66 56.27-71.62 93.92-120.22m-93.92 120.22c22.27-24.14 90.06-107.69 110.42-131.76M185.85 387.48c42.96-48.66 79.86-88.55 123.51-137.18"/><path class="st2" d="M185.85 387.48c9.16-11.11 20.43-21.13 30.44-32.39 37.55-38.8 65.34-64.6 97.74-101.57M185.85 387.48c3.63-3.5 7.26-7.02 10.9-10.53 9.21-8.9 18.42-17.8 27.64-26.7l36.81-35.55c12.8-12.35 25.6-24.72 38.4-37.07 10.76-10.4 19.25-18.59 30.01-28.99M185.85 387.48c54.22-48.66 98.54-88.8 152.35-137.18M185.85 387.48c22.29-18.71 44.62-37.37 66.95-56.04 22.29-18.64 44.58-37.29 66.81-55.99 12.52-10.53 16.26-13.67 28.74-24.24m-162.5 136.27l174.5-136.33m-174.5 136.33L373.71 251M185.85 387.48l192.5-129.83m-192.5 129.83l196.92-123.04M185.85 387.48l201.1-116.09m-201.1 116.09l205.02-109.01M185.85 387.48l208.7-101.78m-208.7 101.78l212.13-94.44m-212.13 94.44l215.29-86.98m-215.29 86.98l218.2-79.42m-218.2 79.42l220.84-71.74m-220.84 71.74l223.2-64m-223.2 64l225.31-56.17m-225.31 56.17l227.13-48.28m-227.13 48.28l228.67-40.31m-228.67 40.31l229.94-32.3m-229.94 32.3l230.93-24.27m-230.93 24.27l231.64-16.2m-231.64 16.2l232.06-8.1m-232.06 8.1h232.2m-232.2 0c-6.7.03-13.39.05-20.09.08m20.09-.08c-6.66-.23-13.32-.46-19.98-.7m19.98.7c-6.62-.49-13.24-.93-19.86-1.34m19.86 1.34c-6.88-.78-13.76-1.55-20.64-2.33m20.64 2.33c-6.87-1.04-13.76-2.04-20.64-3m20.64 3c-6.78-1.29-13.58-2.47-20.39-3.6m20.39 3.6c-6.7-1.01-13.37-2.25-20-3.62m20 3.62c-6.72-1.54-13.42-3.14-20.11-4.79m20.11 4.79c-6.95-1.94-13.89-3.89-20.84-5.87m20.84 5.87c-7.11-2.18-14.19-4.44-21.27-6.73m21.27 6.73c-7.06-2.54-14.13-5.07-21.2-7.58m21.2 7.58c-6.98-3.08-14.02-6.02-21.08-8.9m21.08 8.9c-6.91-3.33-13.88-6.52-20.88-9.65m20.88 9.65c-7.06-3.4-14.12-6.82-21.15-10.26m21.15 10.26c-7.03-3.67-14.01-7.43-20.98-11.24m20.98 11.24c-7.01-4.12-14.01-8.25-21.02-12.37m21.02 12.37c-7.02-4.29-13.99-8.67-20.94-13.09m20.94 13.09c-7.16-4.91-14.31-9.8-21.47-14.71m21.47 14.71c-7.26-5.26-14.52-10.51-21.78-15.76m21.78 15.76c-7.52-5.77-14.07-12.68-21.55-18.5m21.55 18.5c-7.26-5.8-14.43-11.7-21.55-17.69m21.55 17.69c-7.12-7.18-14.44-14.18-21.87-21.05m21.87 21.05c-6.95-7.72-14.21-15.14-21.65-22.38m21.65 22.38c-7.1-7.5-14.24-14.93-21.42-22.35m21.42 22.35c-7.37-7.43-14.53-15.08-21.57-22.84m21.57 22.84c-7.72-8.9-15.4-17.85-23.02-26.84m23.02 26.84c-7.27-9.81-14.68-19.54-22.15-29.19m22.15 29.19c-7.46-9.94-14.87-19.91-22.23-29.91m22.23 29.91c-7.41-11.09-14.83-22.17-22.27-33.24m22.27 33.24c-7.33-11.45-14.64-22.92-21.93-34.4m21.93 34.4c-8.35-14.27-16.65-28.56-24.92-42.87m24.92 42.87c-7.91-14.82-15.83-29.61-23.76-44.42m23.76 44.42c-7.82-15.83-15.56-31.7-23.26-47.6m23.26 47.6c-9.8-17.95-16.02-37.52-25-55.86m25 55.86c-7.94-19.71-15.9-39.4-23.87-59.1m23.87 59.1c-8.19-20.81-15.78-41.87-23.22-62.96m23.22 62.96c-8.2-24.51-16.47-48.98-24.53-73.52m24.53 73.52c-8.9-27.86-15.9-56.26-23.79-84.41m23.79 84.41c-7.16-29.74-14.68-59.39-22.04-89.07m22.04 89.07c-6.13-31.22-12.98-62.28-19.6-93.4"/><path class="st2" d="M185.85 387.48c-6.33-29.21-10.74-58.79-15.51-88.29-1.36-8.39-2.75-16.78-4.23-25.15"/><path class="st2" d="M185.85 387.48c-6.68-33.02-10.53-66.51-14.57-99.93-1.15-9.51-2.32-19.01-3.58-28.51m18.15 128.44c-5.76-42.09-9.51-85.9-13.29-128.53m13.29 128.53c-4.51-42.09-5.76-85.9-9.06-128.76m9.06 128.76c-3.25-43.34-3.25-85.9-4.49-129.26"/><path class="st1" d="M184.02 388.27l53.86.31m-58.35-1.06h240.42"/><path d="M442 246.1s-276.76-3.09-280.68-1.84c-1.54 48.83-.07 281.55-.21 283.05.98-.21 280.51.96 280.89.9-.64-1.45.07-266.64 0-282.11zM300.96 500.84c-64.07 0-116-51.94-116-116 0-64.07 51.94-116 116-116 64.07 0 116 51.94 116 116 .02 64.06-51.93 116-116 116z" fill="#fff"/><circle cx="216.01" cy="322.61" r="49.23" fill="#8bc25c"/><path d="M181.98 325.17c-.8.36-1.74.55-2.79.55-.95 0-1.84-.16-2.65-.48a6.32 6.32 0 01-2.12-1.34c-.6-.58-1.06-1.28-1.4-2.08-.34-.8-.51-1.69-.51-2.67 0-.99.18-1.89.51-2.7s.83-1.49 1.43-2.07c.61-.56 1.31-1 2.14-1.3.81-.3 1.7-.45 2.64-.45.88 0 1.74.15 2.59.46.85.31 1.53.76 2.07 1.35l-2.03 2.03c-.28-.39-.65-.68-1.1-.86s-.93-.28-1.4-.28c-.53 0-1 .1-1.44.29-.44.19-.81.46-1.13.8s-.56.74-.74 1.2-.26.96-.26 1.51c0 .56.09 1.08.26 1.54.18.46.41.86.73 1.2.31.34.68.59 1.11.78s.9.28 1.41.28c.6 0 1.11-.11 1.56-.35s.8-.54 1.06-.91l2.09 1.97c-.55.67-1.23 1.17-2.03 1.53zm16.47-6.03c0 .98-.16 1.88-.51 2.69-.34.81-.81 1.5-1.41 2.09a6.12 6.12 0 01-2.14 1.34c-.83.31-1.73.48-2.7.48s-1.86-.16-2.69-.48a6.077 6.077 0 01-3.55-3.43c-.34-.81-.51-1.71-.51-2.69 0-.99.18-1.89.51-2.69.34-.8.81-1.48 1.41-2.04.6-.56 1.31-.99 2.14-1.3.83-.3 1.71-.45 2.69-.45.96 0 1.86.15 2.7.45.83.3 1.54.74 2.14 1.3.6.56 1.08 1.24 1.41 2.04.34.8.51 1.69.51 2.69zm-3.2 0c0-.54-.09-1.04-.26-1.5-.18-.46-.41-.86-.73-1.2-.31-.34-.69-.6-1.13-.79-.44-.19-.93-.29-1.45-.29-.53 0-1 .1-1.44.29-.43.19-.8.45-1.13.79-.31.34-.56.74-.73 1.2-.18.46-.25.98-.25 1.5 0 .56.09 1.08.26 1.55.18.48.41.88.73 1.21s.68.6 1.11.8c.44.19.91.29 1.44.29.53 0 1-.1 1.44-.29.44-.19.8-.46 1.13-.8.33-.34.56-.74.74-1.21.18-.47.27-1 .27-1.55zm11.96-2.93c-.26-.33-.59-.59-1-.78-.41-.19-.81-.29-1.2-.29-.2 0-.4.01-.6.05-.2.04-.39.1-.55.2-.16.1-.3.23-.41.39s-.16.36-.16.6c0 .21.04.39.13.53s.21.26.39.36c.16.1.38.2.6.29.23.09.5.18.79.28.43.14.86.3 1.31.46.45.18.88.4 1.24.68s.69.63.93 1.04c.24.41.36.93.36 1.55 0 .71-.13 1.33-.39 1.85-.26.53-.61.95-1.06 1.29-.45.34-.95.59-1.53.75-.58.16-1.16.25-1.76.25-.89 0-1.75-.15-2.58-.46-.83-.31-1.51-.75-2.07-1.33l1.97-2c.3.38.7.69 1.2.94s.99.38 1.48.38c.23 0 .44-.02.65-.08.21-.05.39-.13.55-.23.16-.1.29-.25.38-.43.1-.18.14-.39.14-.63s-.06-.44-.18-.6-.29-.31-.5-.45a3.31 3.31 0 00-.8-.36c-.33-.11-.69-.23-1.1-.36-.4-.13-.79-.28-1.16-.45-.38-.18-.71-.4-1.01-.68-.3-.28-.54-.61-.71-1-.18-.39-.28-.86-.28-1.43 0-.69.14-1.28.43-1.76.28-.49.65-.89 1.1-1.21.45-.31.96-.55 1.54-.69.58-.15 1.15-.21 1.74-.21.7 0 1.41.13 2.14.39.73.26 1.36.64 1.92 1.14l-1.94 2.01zm12.44 9.18l-.96-2.44h-4.81l-.91 2.44h-3.25l5.21-12.4h2.9l5.16 12.4h-3.34zm-3.33-9.09l-1.58 4.26h3.12l-1.54-4.26zm17.33.5c0 .73-.14 1.34-.4 1.83-.26.5-.63.9-1.09 1.2-.45.3-.98.53-1.58.66s-1.21.21-1.85.21h-1.49v4.68h-2.99v-12.4h4.56c.68 0 1.31.06 1.9.2.59.14 1.1.35 1.54.65.44.3.78.69 1.04 1.18.23.49.36 1.09.36 1.79zm-2.99.03c0-.29-.06-.53-.18-.71s-.28-.34-.48-.44c-.2-.1-.43-.18-.68-.21a4.95 4.95 0 00-.78-.05h-1.31v2.93h1.26c.28 0 .55-.03.8-.08.26-.05.49-.13.69-.25.2-.11.36-.28.48-.46.13-.21.2-.45.2-.73zm11.66 8.56l-2.69-4.92h-1.03v4.92h-2.93v-12.4h4.73c.6 0 1.18.06 1.74.19s1.08.33 1.53.63c.45.3.81.68 1.08 1.15.26.48.4 1.08.4 1.79 0 .84-.23 1.55-.69 2.12s-1.09.98-1.89 1.23l3.24 5.31h-3.49zm-.11-8.6c0-.29-.06-.53-.19-.71-.13-.18-.28-.33-.48-.43-.19-.1-.41-.16-.65-.2-.24-.04-.48-.05-.7-.05h-1.6v2.89h1.43c.25 0 .5-.03.76-.06s.49-.11.7-.21c.21-.1.39-.26.53-.45.12-.21.2-.47.2-.78zm18.25 2.35c0 .98-.16 1.88-.51 2.69-.34.81-.81 1.5-1.41 2.09a6.12 6.12 0 01-2.14 1.34c-.83.31-1.73.48-2.7.48-.98 0-1.86-.16-2.69-.48a6.077 6.077 0 01-3.55-3.43c-.34-.81-.51-1.71-.51-2.69 0-.99.18-1.89.51-2.69.34-.8.81-1.48 1.41-2.04.6-.56 1.31-.99 2.14-1.3.83-.3 1.71-.45 2.69-.45.96 0 1.86.15 2.7.45.83.3 1.54.74 2.14 1.3.6.56 1.08 1.24 1.41 2.04.34.8.51 1.69.51 2.69zm-3.21 0c0-.54-.09-1.04-.26-1.5-.18-.46-.41-.86-.73-1.2-.31-.34-.69-.6-1.13-.79s-.93-.29-1.45-.29-1 .1-1.44.29c-.43.19-.8.45-1.13.79-.31.34-.56.74-.73 1.2-.18.46-.25.98-.25 1.5 0 .56.09 1.08.26 1.55.18.48.41.88.73 1.21s.68.6 1.11.8c.44.19.91.29 1.44.29.53 0 1-.1 1.44-.29.44-.19.8-.46 1.13-.8.33-.34.56-.74.74-1.21.19-.47.27-1 .27-1.55zm-39.49 21.28c0 .98-.16 1.88-.51 2.69-.34.81-.81 1.5-1.41 2.09a6.12 6.12 0 01-2.14 1.34c-.83.31-1.73.48-2.7.48-.98 0-1.86-.16-2.69-.48a6.077 6.077 0 01-3.55-3.43c-.34-.81-.51-1.71-.51-2.69 0-.99.18-1.89.51-2.69.34-.8.81-1.48 1.41-2.04.6-.56 1.31-.99 2.14-1.3.83-.3 1.71-.45 2.69-.45.96 0 1.86.15 2.7.45.83.3 1.54.74 2.14 1.3.6.56 1.08 1.24 1.41 2.04.34.8.51 1.69.51 2.69zm-3.21 0c0-.54-.09-1.04-.26-1.5-.18-.46-.41-.86-.73-1.2s-.69-.6-1.13-.79c-.44-.19-.93-.29-1.45-.29-.53 0-1 .1-1.44.29-.43.19-.8.45-1.13.79-.31.34-.56.74-.73 1.2-.18.46-.25.98-.25 1.5 0 .56.09 1.08.26 1.55.18.48.41.88.73 1.21s.68.6 1.11.8c.44.19.91.29 1.44.29s1-.1 1.44-.29c.44-.19.8-.46 1.13-.8.33-.34.56-.74.74-1.21.18-.47.27-1 .27-1.55zm10.89.99v5.26h-2.99v-5.26l-4.66-7.15h3.63l2.64 4.59 2.64-4.59h3.5l-4.76 7.15z" fill="#004b67"/><path fill="none" stroke="#004b67" stroke-width="7.1" stroke-miterlimit="10" d="M158.44 242.97h286.51v286.51H158.44z"/></svg>