<?xml version="1.0" encoding="utf-8"?>
<!-- Generator: Adobe Illustrator 26.3.1, SVG Export Plug-In . SVG Version: 6.00 Build 0)  -->
<svg version="1.1" id="Layer_1" xmlns="http://www.w3.org/2000/svg" xmlns:xlink="http://www.w3.org/1999/xlink" x="0px" y="0px"
	 viewBox="0 0 595.28 841.89" style="enable-background:new 0 0 595.28 841.89;" xml:space="preserve">
<style type="text/css">
	.st0{fill:#1C75BC;stroke:#8BC25C;stroke-width:1.7972;stroke-miterlimit:10;}
	.st1{fill:none;stroke:#8BC25C;stroke-width:1.7972;stroke-miterlimit:10;}
	.st2{fill:none;stroke:#004B67;stroke-width:1.7972;stroke-miterlimit:10;}
	.st3{display:none;}
	.st4{display:inline;fill:none;stroke:#8BC25C;stroke-width:1.7972;stroke-miterlimit:10;}
	.st5{fill:#FFFFFF;}
	.st6{fill:#8BC25C;}
	.st7{fill:#004B67;}
	.st8{fill:none;stroke:#004B67;stroke-width:7.1;stroke-miterlimit:10;}
</style>
<g>
	<g>
		<g>
			<g>
				<path class="st0" d="M185.41,387.48c0.35,38.53,0.35,78.58,0,117.86"/>
				<path class="st0" d="M190.35,516.44c-0.55-15.78-1.31-31.47-2.09-47.12l1.64,46.86C190.05,516.26,190.2,516.35,190.35,516.44z"
					/>
				<path class="st0" d="M188.26,469.31l-2.85-81.83C185.58,414.89,186.92,442.07,188.26,469.31z"/>
				<path class="st0" d="M194.65,518.92c-2.93-43.91-5.75-87.47-9.24-131.42l9.19,131.4C194.61,518.89,194.63,518.9,194.65,518.92z"
					/>
				<path class="st0" d="M194.57,474.73c-2.85-29.25-5.73-58.39-9.17-87.24L194.57,474.73z"/>
				<path class="st0" d="M199.41,520.76l-4.83-46.02c1.5,15.36,2.98,30.75,4.53,46.15C199.21,520.84,199.3,520.79,199.41,520.76z"/>
				<path class="st0" d="M204.13,520.77L185.4,387.49c6.28,44.78,12.34,88.15,18.35,133.15
					C203.88,520.68,204.01,520.72,204.13,520.77z"/>
				<path class="st0" d="M209.25,521.37c-7.9-44.78-16.07-89.67-23.84-133.89L209,521.32C209.09,521.33,209.16,521.36,209.25,521.37
					z"/>
				<path class="st0" d="M213.45,523.11c0.29,0.05,0.58,0.11,0.84,0.2l-28.88-135.83c6.61,41.03,17.87,79.83,25.38,122.39
					C211.63,514.32,212.53,518.73,213.45,523.11z"/>
				<line class="st1" x1="185.41" y1="387.48" x2="219.25" y2="523.01"/>
				<line class="st1" x1="185.41" y1="387.48" x2="225.01" y2="525.61"/>
				<line class="st1" x1="185.41" y1="387.48" x2="230.84" y2="527.31"/>
				<line class="st1" x1="185.41" y1="387.48" x2="235.67" y2="525.6"/>
				<line class="st1" x1="185.41" y1="387.48" x2="241.21" y2="525.61"/>
				<line class="st1" x1="185.41" y1="387.48" x2="247.25" y2="526.4"/>
				<line class="st1" x1="185.41" y1="387.48" x2="253.1" y2="526.29"/>
				<line class="st1" x1="185.41" y1="387.48" x2="258.86" y2="525.61"/>
				<line class="st1" x1="185.41" y1="387.48" x2="265.35" y2="525.96"/>
				<line class="st1" x1="185.41" y1="387.48" x2="272.4" y2="526.7"/>
				<line class="st1" x1="185.41" y1="387.48" x2="278.57" y2="525.61"/>
				<line class="st1" x1="185.41" y1="387.48" x2="285.72" y2="525.55"/>
				<line class="st1" x1="185.41" y1="387.48" x2="293.05" y2="525.26"/>
				<line class="st1" x1="185.41" y1="387.48" x2="299.72" y2="523.72"/>
				<line class="st1" x1="185.41" y1="387.48" x2="308.32" y2="523.97"/>
				<line class="st1" x1="185.41" y1="387.48" x2="319.23" y2="526.08"/>
				<line class="st1" x1="185.41" y1="387.48" x2="327.82" y2="525.01"/>
				<line class="st1" x1="185.41" y1="387.48" x2="338.76" y2="525.58"/>
				<line class="st1" x1="185.41" y1="387.48" x2="344.07" y2="520.62"/>
				<line class="st1" x1="185.41" y1="387.48" x2="352" y2="517.64"/>
				<line class="st1" x1="185.41" y1="387.48" x2="373.26" y2="523.97"/>
				<line class="st1" x1="185.41" y1="387.48" x2="377.91" y2="517.33"/>
				<line class="st1" x1="185.41" y1="387.48" x2="382.32" y2="510.53"/>
				<line class="st1" x1="185.41" y1="387.48" x2="386.5" y2="503.58"/>
				<line class="st1" x1="185.41" y1="387.48" x2="390.43" y2="496.5"/>
				<line class="st1" x1="185.41" y1="387.48" x2="394.11" y2="489.28"/>
				<line class="st1" x1="185.41" y1="387.48" x2="397.53" y2="481.93"/>
				<line class="st1" x1="185.41" y1="387.48" x2="400.69" y2="474.47"/>
				<line class="st1" x1="185.41" y1="387.48" x2="403.6" y2="466.9"/>
				<line class="st1" x1="185.41" y1="387.48" x2="406.24" y2="459.24"/>
				<line class="st1" x1="185.41" y1="387.48" x2="408.62" y2="451.49"/>
				<line class="st1" x1="185.41" y1="387.48" x2="410.71" y2="443.65"/>
				<line class="st1" x1="185.41" y1="387.48" x2="412.53" y2="435.77"/>
				<line class="st1" x1="185.41" y1="387.48" x2="414.07" y2="427.81"/>
				<line class="st1" x1="185.41" y1="387.48" x2="415.35" y2="419.8"/>
				<line class="st1" x1="185.41" y1="387.48" x2="416.34" y2="411.76"/>
				<line class="st1" x1="185.41" y1="387.48" x2="417.04" y2="403.69"/>
				<line class="st1" x1="185.41" y1="387.48" x2="417.46" y2="395.59"/>
				<line class="st1" x1="185.41" y1="387.48" x2="417.6" y2="387.48"/>
				<path class="st0" d="M176.99,387.48h8.41c-2.79-0.01-5.62-0.03-8.41-0.04C176.99,387.47,176.99,387.48,176.99,387.48z"/>
				<path class="st0" d="M176.97,387.82c2.82-0.11,5.62-0.21,8.44-0.33l-8.44,0.3C176.97,387.79,176.97,387.81,176.97,387.82z"/>
				<path class="st0" d="M176.92,388.21c2.83-0.24,5.66-0.48,8.49-0.73l-8.47,0.59C176.93,388.12,176.92,388.17,176.92,388.21z"/>
				<path class="st0" d="M176.88,388.42c2.84-0.31,5.68-0.61,8.52-0.93l-8.51,0.89C176.9,388.39,176.88,388.41,176.88,388.42z"/>
				<path class="st0" d="M176.83,388.69l8.57-1.2c-2.85,0.39-5.71,0.79-8.57,1.19C176.83,388.68,176.83,388.68,176.83,388.69z"/>
				<path class="st0" d="M176.75,389.03c2.88-0.51,5.77-1.03,8.66-1.55l-8.65,1.53C176.75,389.02,176.75,389.02,176.75,389.03z"/>
				<path class="st0" d="M176.67,389.83c2.92-0.7,5.83-1.48,8.74-2.35l-8.75,1.86c-0.03,0.08-0.05,0.14-0.08,0.21
					C176.61,389.66,176.63,389.75,176.67,389.83z"/>
				<path class="st0" d="M176.62,389.68c0,0.01,0.01,0.01,0.01,0.03c2.93-0.74,5.86-1.48,8.77-2.22L176.62,389.68z"/>
				<path class="st0" d="M176.71,389.98c0.01,0.03,0.01,0.05,0.03,0.06c2.89-0.85,5.78-1.69,8.67-2.55L176.71,389.98z"/>
				<path class="st0" d="M176.8,390.28c0.01,0.05,0.01,0.09,0.03,0.14c2.87-0.98,5.72-1.95,8.57-2.94L176.8,390.28z"/>
				<path class="st0" d="M176.82,390.43c0.01,0.05,0.03,0.11,0.04,0.16l8.55-3.1C182.54,388.46,179.69,389.45,176.82,390.43z"/>
				<path class="st0" d="M176.92,390.91c0,0.04,0.01,0.06,0.01,0.1c2.83-1.18,5.66-2.35,8.47-3.53L176.92,390.91z"/>
				<path class="st0" d="M176.95,391.12c0,0.04,0.01,0.09,0.01,0.13l8.45-3.75C182.6,388.57,179.78,389.82,176.95,391.12z"/>
				<path class="st0" d="M185.41,387.48l-8.42,4.11v0.01C179.79,390.23,182.6,388.85,185.41,387.48z"/>
				<path class="st0" d="M185.41,387.48c-2.82,1.44-5.61,2.9-8.41,4.36c0,0.04,0,0.08,0,0.11L185.41,387.48z"/>
				<path class="st0" d="M176.99,392.35l8.42-4.86c-2.8,1.59-5.61,3.2-8.41,4.79C176.99,392.31,176.99,392.32,176.99,392.35z"/>
				<path class="st0" d="M176.96,392.76l8.45-5.28c-2.82,1.69-5.62,3.39-8.42,5.08C176.97,392.64,176.96,392.7,176.96,392.76z"/>
				<path class="st0" d="M176.9,393.23l8.51-5.75c-2.84,1.83-5.66,3.65-8.47,5.48C176.92,393.06,176.91,393.14,176.9,393.23z"/>
				<path class="st0" d="M176.78,393.75l8.62-6.26c-2.88,2.05-5.75,4.11-8.6,6.15C176.8,393.68,176.8,393.71,176.78,393.75z"/>
				<path class="st0" d="M176.58,394.4c2.94-2.3,5.87-4.62,8.82-6.91l-8.81,6.88C176.58,394.38,176.58,394.39,176.58,394.4z"/>
				<path class="st0" d="M176.21,395.24c3.07-2.59,6.15-5.17,9.2-7.76l-9.17,7.7C176.22,395.2,176.21,395.23,176.21,395.24z"/>
				<path class="st0" d="M185.41,387.48l-9.27,8.36c0,0.04,0.01,0.09,0.01,0.13C179.26,393.15,182.35,390.33,185.41,387.48z"/>
				<path class="st0" d="M185.41,387.48c-2.67,2.58-5.34,5.16-8.01,7.74"/>
				<path class="st0" d="M176.18,397.03l9.21-9.55c-3.1,3-6.17,6.03-9.22,9.09C176.2,396.73,176.2,396.88,176.18,397.03z"/>
				<path class="st0" d="M185.41,387.48c-2.29,2.54-4.58,5.09-6.87,7.64"/>
				<path class="st0" d="M176.05,398.63l9.35-11.15c-3.14,3.57-6.25,7.16-9.35,10.75c-0.01,0.06-0.03,0.13-0.05,0.19
					C176.02,398.5,176.03,398.56,176.05,398.63z"/>
				<path class="st0" d="M185.41,387.48c-3.07,3.93-6.16,7.86-9.25,11.8c0,0.01,0,0.03,0,0.04L185.41,387.48z"/>
				<path class="st0" d="M176.18,400.24c3.07-4.24,6.16-8.51,9.21-12.75l-9.2,12.69C176.2,400.19,176.18,400.21,176.18,400.24z"/>
				<path class="st0" d="M176.1,401.29c0.04,0.2,0.06,0.41,0.08,0.61c3.15-4.78,6.25-9.56,9.24-14.41L176.1,401.29z"/>
				<path class="st0" d="M176.18,402.05c0,0.06,0,0.13,0.01,0.19l9.21-14.76C182.32,392.34,179.25,397.19,176.18,402.05z"/>
				<path class="st0" d="M176.03,404.2c3.13-5.54,6.26-11.11,9.37-16.71l-9.3,16.11c-0.03,0.16-0.06,0.31-0.1,0.46
					C176.02,404.1,176.02,404.15,176.03,404.2z"/>
				<path class="st0" d="M185.41,387.48c-2.44,4.59-4.88,9.19-7.33,13.78"/>
				<path class="st0" d="M185.41,387.48c-2.15,4.73-4.66,9.74-7.36,15.09"/>
				<path class="st0" d="M185.41,387.48c-2.15,4.73-4.66,9.74-7.33,16.46"/>
				<path class="st0" d="M185.41,387.48c-2.15,5.98-5.91,12.24-7.32,18.11"/>
				<path class="st0" d="M185.41,387.48c-2.15,5.98-4.66,13.49-7.31,20.08"/>
				<path class="st0" d="M185.41,387.48c-3.4,7.23-4.66,14.74-7.36,22.64"/>
				<path class="st0" d="M185.41,387.48c-3.4,8.49-4.66,17.25-7.35,25.63"/>
				<path class="st0" d="M185.41,387.48c-2.15,9.74-4.66,21-7.77,31.15"/>
				<path class="st0" d="M185.41,387.48c-2.15,12.24-4.66,26.01-8.1,38.09"/>
				<path class="st0" d="M185.41,387.48c-3.4,14.74-4.66,31.02-8.15,46.24"/>
				<path class="st0" d="M176.88,448.14c-0.4,2.6-0.78,5.19-1.18,7.8c0.01,0.05,0.04,0.09,0.05,0.14L176.88,448.14z"/>
				<path class="st0" d="M185.41,387.48c-3.4,18.5-5.91,36.02-7.77,55.3"/>
				<path class="st0" d="M177.49,462.8l-0.94,8.92c0.05,0.13,0.09,0.26,0.14,0.39C176.95,469.01,177.24,465.91,177.49,462.8z"/>
				<path class="st0" d="M185.41,387.48c-2.15,23.51-5.91,46.04-7.36,70.02"/>
				<path class="st0" d="M185.41,387.48c-3.4,31.02-2.15,62.31-6.58,94.11"/>
				<path class="st0" d="M182.02,484.35l3.38-96.85c-1.53,31.72-2.59,64.18-3.58,96.56C181.89,484.15,181.97,484.25,182.02,484.35z"
					/>
			</g>
			<g>
				<path class="st2" d="M185.85,387.48c0.5-43.34,0.5-85.9,0.18-129.27"/>
				<path class="st2" d="M185.85,387.48c-0.75-43.34,5.51-85.9,5.44-129.8"/>
				<path class="st2" d="M185.85,387.48c1.75-43.34,5.51-85.9,9-130.15"/>
				<path class="st2" d="M185.85,387.48c1.75-43.34,10.51-87.15,13.32-130.41"/>
				<path class="st2" d="M185.85,387.48c4.46-33.67,9.06-67.31,14.01-100.91c1.43-9.68,2.88-19.36,4.36-29.03"/>
				<path class="st2" d="M185.85,387.48c6.26-33.66,11.31-67.53,17.27-101.23c1.69-9.51,3.44-19.03,5.32-28.5"/>
				<path class="st2" d="M185.85,387.48c9.26-43.34,19.28-85.9,27.81-129.37"/>
				<path class="st2" d="M185.85,387.48c9.26-43.34,23.03-85.9,32.68-129.57"/>
				<path class="st2" d="M185.85,387.48c14.17-47.41,24.48-88.5,39.08-136.27"/>
				<path class="st2" d="M185.85,387.48c15.42-48.66,30.25-91.78,45.11-138.82"/>
				<path class="st2" d="M185.85,387.48c15.42-48.66,31.18-83.22,47.96-131.76"/>
				<path class="st2" d="M185.85,387.48c1.65-7.36,5.41-13.62,7.91-21.13c16.27-41.3,30.85-67.58,47.29-109.01"/>
				<path class="st2" d="M185.85,387.48c2.9-3.6,2.9-7.36,4.16-11.11c21.28-45.06,35.1-77.86,55.2-122.34"/>
				<path class="st2" d="M185.85,387.48c22.93-48.66,42.56-85.14,65.34-133.96"/>
				<path class="st2" d="M185.85,387.48c4.16-8.61,7.91-17.37,12.92-26.13c23.78-38.8,32.98-66.78,56.49-105.63"/>
				<path class="st2" d="M185.85,387.48c26.69-48.66,52.89-89.58,79.67-137.99"/>
				<path class="st2" d="M185.85,387.48c29.19-48.66,52.02-82.68,82.33-131.76"/>
				<path class="st2" d="M185.85,387.48c15.42-22.38,65.14-96.09,82.61-122.6"/>
				<path class="st2" d="M185.85,387.48c4.16-8.61,12.92-14.87,16.67-23.63c3.75-6.26,10.01-12.52,15.02-18.77
					c26.28-35.05,32.17-45.81,56.65-79.07"/>
				<path class="st2" d="M185.85,387.48c37.95-48.66,56.27-71.62,93.92-120.22"/>
				<path class="st2" d="M185.85,387.48c22.27-24.14,90.06-107.69,110.42-131.76"/>
				<path class="st2" d="M185.85,387.48c42.96-48.66,79.86-88.55,123.51-137.18"/>
				<path class="st2" d="M185.85,387.48c9.16-11.11,20.43-21.13,30.44-32.39c37.55-38.8,65.34-64.6,97.74-101.57"/>
				<path class="st2" d="M185.85,387.48c3.63-3.5,7.26-7.02,10.9-10.53c9.21-8.9,18.42-17.8,27.64-26.7
					c12.27-11.85,24.53-23.69,36.81-35.55c12.8-12.35,25.6-24.72,38.4-37.07c10.76-10.4,19.25-18.59,30.01-28.99"/>
				<path class="st2" d="M185.85,387.48c54.22-48.66,98.54-88.8,152.35-137.18"/>
				<path class="st2" d="M185.85,387.48c22.29-18.71,44.62-37.37,66.95-56.04c22.29-18.64,44.58-37.29,66.81-55.99
					c12.52-10.53,16.26-13.67,28.74-24.24"/>
				<line class="st2" x1="185.85" y1="387.48" x2="360.35" y2="251.15"/>
				<line class="st2" x1="185.85" y1="387.48" x2="373.71" y2="251"/>
				<line class="st2" x1="185.85" y1="387.48" x2="378.35" y2="257.65"/>
				<line class="st2" x1="185.85" y1="387.48" x2="382.77" y2="264.44"/>
				<line class="st2" x1="185.85" y1="387.48" x2="386.95" y2="271.39"/>
				<line class="st2" x1="185.85" y1="387.48" x2="390.87" y2="278.47"/>
				<line class="st2" x1="185.85" y1="387.48" x2="394.55" y2="285.7"/>
				<line class="st2" x1="185.85" y1="387.48" x2="397.98" y2="293.04"/>
				<line class="st2" x1="185.85" y1="387.48" x2="401.14" y2="300.5"/>
				<line class="st2" x1="185.85" y1="387.48" x2="404.05" y2="308.06"/>
				<line class="st2" x1="185.85" y1="387.48" x2="406.69" y2="315.74"/>
				<line class="st2" x1="185.85" y1="387.48" x2="409.05" y2="323.48"/>
				<line class="st2" x1="185.85" y1="387.48" x2="411.16" y2="331.31"/>
				<line class="st2" x1="185.85" y1="387.48" x2="412.98" y2="339.2"/>
				<line class="st2" x1="185.85" y1="387.48" x2="414.52" y2="347.17"/>
				<line class="st2" x1="185.85" y1="387.48" x2="415.79" y2="355.18"/>
				<line class="st2" x1="185.85" y1="387.48" x2="416.78" y2="363.21"/>
				<line class="st2" x1="185.85" y1="387.48" x2="417.49" y2="371.28"/>
				<line class="st2" x1="185.85" y1="387.48" x2="417.91" y2="379.38"/>
				<line class="st2" x1="185.85" y1="387.48" x2="418.05" y2="387.48"/>
				<path class="st2" d="M185.85,387.48c-6.7,0.03-13.39,0.05-20.09,0.08"/>
				<path class="st2" d="M185.85,387.48c-6.66-0.23-13.32-0.46-19.98-0.7"/>
				<path class="st2" d="M185.85,387.48c-6.62-0.49-13.24-0.93-19.86-1.34"/>
				<path class="st2" d="M185.85,387.48c-6.88-0.78-13.76-1.55-20.64-2.33"/>
				<path class="st2" d="M185.85,387.48c-6.87-1.04-13.76-2.04-20.64-3"/>
				<path class="st2" d="M185.85,387.48c-6.78-1.29-13.58-2.47-20.39-3.6"/>
				<path class="st2" d="M185.85,387.48c-6.7-1.01-13.37-2.25-20-3.62"/>
				<path class="st2" d="M185.85,387.48c-6.72-1.54-13.42-3.14-20.11-4.79"/>
				<path class="st2" d="M185.85,387.48c-6.95-1.94-13.89-3.89-20.84-5.87"/>
				<path class="st2" d="M185.85,387.48c-7.11-2.18-14.19-4.44-21.27-6.73"/>
				<path class="st2" d="M185.85,387.48c-7.06-2.54-14.13-5.07-21.2-7.58"/>
				<path class="st2" d="M185.85,387.48c-6.98-3.08-14.02-6.02-21.08-8.9"/>
				<path class="st2" d="M185.85,387.48c-6.91-3.33-13.88-6.52-20.88-9.65"/>
				<path class="st2" d="M185.85,387.48c-7.06-3.4-14.12-6.82-21.15-10.26"/>
				<path class="st2" d="M185.85,387.48c-7.03-3.67-14.01-7.43-20.98-11.24"/>
				<path class="st2" d="M185.85,387.48c-7.01-4.12-14.01-8.25-21.02-12.37"/>
				<path class="st2" d="M185.85,387.48c-7.02-4.29-13.99-8.67-20.94-13.09"/>
				<path class="st2" d="M185.85,387.48c-7.16-4.91-14.31-9.8-21.47-14.71"/>
				<path class="st2" d="M185.85,387.48c-7.26-5.26-14.52-10.51-21.78-15.76"/>
				<path class="st2" d="M185.85,387.48c-7.52-5.77-14.07-12.68-21.55-18.5"/>
				<path class="st2" d="M185.85,387.48c-7.26-5.8-14.43-11.7-21.55-17.69"/>
				<path class="st2" d="M185.85,387.48c-7.12-7.18-14.44-14.18-21.87-21.05"/>
				<path class="st2" d="M185.85,387.48c-6.95-7.72-14.21-15.14-21.65-22.38"/>
				<path class="st2" d="M185.85,387.48c-7.1-7.5-14.24-14.93-21.42-22.35"/>
				<path class="st2" d="M185.85,387.48c-7.37-7.43-14.53-15.08-21.57-22.84"/>
				<path class="st2" d="M185.85,387.48c-7.72-8.9-15.4-17.85-23.02-26.84"/>
				<path class="st2" d="M185.85,387.48c-7.27-9.81-14.68-19.54-22.15-29.19"/>
				<path class="st2" d="M185.85,387.48c-7.46-9.94-14.87-19.91-22.23-29.91"/>
				<path class="st2" d="M185.85,387.48c-7.41-11.09-14.83-22.17-22.27-33.24"/>
				<path class="st2" d="M185.85,387.48c-7.33-11.45-14.64-22.92-21.93-34.4"/>
				<path class="st2" d="M185.85,387.48c-8.35-14.27-16.65-28.56-24.92-42.87"/>
				<path class="st2" d="M185.85,387.48c-7.91-14.82-15.83-29.61-23.76-44.42"/>
				<path class="st2" d="M185.85,387.48c-7.82-15.83-15.56-31.7-23.26-47.6"/>
				<path class="st2" d="M185.85,387.48c-9.8-17.95-16.02-37.52-25-55.86"/>
				<path class="st2" d="M185.85,387.48c-7.94-19.71-15.9-39.4-23.87-59.1"/>
				<path class="st2" d="M185.85,387.48c-8.19-20.81-15.78-41.87-23.22-62.96"/>
				<path class="st2" d="M185.85,387.48c-8.2-24.51-16.47-48.98-24.53-73.52"/>
				<path class="st2" d="M185.85,387.48c-8.9-27.86-15.9-56.26-23.79-84.41"/>
				<path class="st2" d="M185.85,387.48c-7.16-29.74-14.68-59.39-22.04-89.07"/>
				<path class="st2" d="M185.85,387.48c-6.13-31.22-12.98-62.28-19.6-93.4"/>
				<path class="st2" d="M185.85,387.48c-6.33-29.21-10.74-58.79-15.51-88.29c-1.36-8.39-2.75-16.78-4.23-25.15"/>
				<path class="st2" d="M185.85,387.48c-6.68-33.02-10.53-66.51-14.57-99.93c-1.15-9.51-2.32-19.01-3.58-28.51"/>
				<path class="st2" d="M185.85,387.48c-5.76-42.09-9.51-85.9-13.29-128.53"/>
				<path class="st2" d="M185.85,387.48c-4.51-42.09-5.76-85.9-9.06-128.76"/>
				<path class="st2" d="M185.85,387.48c-3.25-43.34-3.25-85.9-4.49-129.26"/>
			</g>
			<g class="st3">
				<path class="st4" d="M185.85,387.48c0.4,45.21,0.4,90.27,0,134.84"/>
				<path class="st4" d="M185.85,387.48c0.4,45.21,2.9,89.02,4.57,133.91"/>
				<path class="st4" d="M185.85,387.48c2.9,45.21,6.66,90.27,9.5,135.8"/>
				<path class="st4" d="M185.85,387.48c4.16,45.21,10.41,90.27,14.28,135.82"/>
				<path class="st4" d="M185.85,387.48c1.31,9.34,16.97,120.8,18.95,134.81"/>
				<path class="st4" d="M185.85,387.48c7.91,45.21,16.67,91.52,24.02,136.19"/>
				<path class="st4" d="M185.85,387.48c10.41,45.21,20.43,90.27,28.8,135.28"/>
				<path class="st4" d="M185.85,387.48c11.67,45.21,22.93,91.52,34.18,137.11"/>
				<path class="st4" d="M185.85,387.48c12.92,45.21,25.43,90.27,38.7,134.99"/>
				<line class="st4" x1="185.85" y1="387.48" x2="230.04" y2="523.5"/>
				<line class="st4" x1="185.85" y1="387.48" x2="235.49" y2="523.87"/>
				<path class="st4" d="M185.85,387.48c0,0,41.75,102.82,54.45,134.76"/>
				<path class="st4" d="M185.85,387.48c9.84,15.63,2.4,7.15,60.58,136.07"/>
				<line class="st4" x1="194.62" y1="405.47" x2="252.26" y2="523.64"/>
				<path class="st4" d="M185.85,387.48c17.91,31.03,61.98,119.67,73.07,137.42"/>
				<path class="st4" d="M185.85,387.48c5.83,10.1,70.74,122.54,79.47,137.64"/>
				<path class="st4" d="M185.85,387.48c25.35,40.78,58.48,93.56,87.24,139.61"/>
				<path class="st4" d="M185.85,387.48c11.62,16.71,69.59,104.05,92.27,136.81"/>
				<path class="st4" d="M185.85,387.48c28.8,40.17,83.51,114.41,100.26,137.99"/>
				<path class="st4" d="M185.85,387.48c31.4,40.17,72.25,92.31,108.1,138.37"/>
				<path class="st4" d="M185.85,387.48c38.45,46,77.25,91.06,115.3,137.41"/>
				<path class="st4" d="M185.85,387.48c35.83,38.68,82.26,92.31,123.95,137.67"/>
				<path class="st4" d="M185.85,387.48c7.28,6.87,122.04,126.38,122.04,126.38"/>
				<path class="st4" d="M185.85,387.48c14.41,12.84,139.2,135.28,144.15,139.21"/>
				<path class="st4" d="M185.85,387.48c27.42,24.48,144.15,129.2,154.87,139.43"/>
				<path class="st4" d="M185.85,387.48c38.7,32,149.7,125.62,161.69,135.68"/>
				<path class="st4" d="M185.85,387.48c45.4,35.87,114.8,88.55,172.84,135.02"/>
				<line class="st4" x1="185.85" y1="387.48" x2="373.71" y2="523.97"/>
				<line class="st4" x1="185.85" y1="387.48" x2="378.35" y2="517.33"/>
				<line class="st4" x1="185.85" y1="387.48" x2="382.77" y2="510.53"/>
				<line class="st4" x1="185.85" y1="387.48" x2="386.95" y2="503.58"/>
				<line class="st4" x1="185.85" y1="387.48" x2="390.87" y2="496.5"/>
				<line class="st4" x1="185.85" y1="387.48" x2="394.55" y2="489.28"/>
				<line class="st4" x1="185.85" y1="387.48" x2="397.98" y2="481.93"/>
				<line class="st4" x1="185.85" y1="387.48" x2="401.14" y2="474.47"/>
				<line class="st4" x1="185.85" y1="387.48" x2="404.05" y2="466.9"/>
				<line class="st4" x1="185.85" y1="387.48" x2="406.69" y2="459.24"/>
				<line class="st4" x1="185.85" y1="387.48" x2="409.05" y2="451.49"/>
				<line class="st4" x1="185.85" y1="387.48" x2="411.16" y2="443.65"/>
				<line class="st4" x1="185.85" y1="387.48" x2="412.98" y2="435.77"/>
				<line class="st4" x1="185.85" y1="387.48" x2="414.52" y2="427.81"/>
				<line class="st4" x1="185.85" y1="387.48" x2="415.79" y2="419.8"/>
				<line class="st4" x1="185.85" y1="387.48" x2="416.78" y2="411.76"/>
				<line class="st4" x1="185.85" y1="387.48" x2="417.49" y2="403.69"/>
				<line class="st4" x1="185.85" y1="387.48" x2="417.91" y2="395.59"/>
				<line class="st4" x1="185.85" y1="387.48" x2="418.05" y2="387.48"/>
				<path class="st4" d="M185.85,387.48c-9.6,0.05-19.21,0.08-28.81,0.09"/>
				<path class="st4" d="M185.85,387.48c-9.84,0.43-19.69,0.73-29.54,0.99"/>
				<path class="st4" d="M185.85,387.48c-9.8,0.43-19.59,1.06-29.36,1.79"/>
				<path class="st4" d="M185.85,387.48c-9.45,0.78-18.87,1.75-28.29,2.8"/>
				<path class="st4" d="M185.85,387.48c-9.45,1.51-18.91,2.89-28.39,4.21"/>
				<path class="st4" d="M185.85,387.48c-9.31,1.85-18.65,3.58-28,5.23"/>
				<path class="st4" d="M185.85,387.48c-9.36,1.86-18.7,3.79-28.04,5.76"/>
				<path class="st4" d="M185.85,387.48c-9.34,2.59-18.74,4.94-28.16,7.2"/>
				<path class="st4" d="M185.85,387.48c-9.5,2.63-18.97,5.34-28.44,8.09"/>
				<path class="st4" d="M185.85,387.48c-9.98,3.24-19.94,6.48-29.91,9.73"/>
				<path class="st4" d="M185.85,387.48c-9.74,3.83-19.56,7.41-29.43,10.9"/>
				<path class="st4" d="M185.85,387.48c-9.71,3.93-19.44,7.85-29.15,11.78"/>
				<path class="st4" d="M185.85,387.48c-9.61,4.37-19.2,8.77-28.86,13.03"/>
				<path class="st4" d="M185.85,387.48c-9.17,5.24-18.62,10-28.17,14.52"/>
				<path class="st4" d="M185.85,387.48c-9.68,4.41-19.1,9.32-28.4,14.46"/>
				<path class="st4" d="M185.85,387.48c-9.54,5.06-18.92,10.4-28.24,15.88"/>
				<path class="st4" d="M185.85,387.48c-10.1,5.72-20,11.78-29.81,17.97"/>
				<path class="st4" d="M185.85,387.48c-9.2,5.69-18.01,11.98-26.96,18.05"/>
				<path class="st4" d="M185.85,387.48c-8.92,6.06-17.74,12.25-26.5,18.55"/>
				<path class="st4" d="M185.85,387.48c-8.71,6.57-17.32,13.27-25.88,20.03"/>
				<path class="st4" d="M185.85,387.48c-9.39,5.82-17.15,13.78-25.17,21.28"/>
				<path class="st4" d="M185.85,387.48c-8.66,7.23-17.2,14.62-25.66,22.09"/>
				<path class="st4" d="M185.85,387.48c-8.42,7.91-16.78,15.88-25.12,23.89"/>
				<path class="st4" d="M185.85,387.48c-8.47,8.77-16.95,17.55-25.43,26.33"/>
				<path class="st4" d="M185.85,387.48c-8.44,9.19-16.86,18.39-25.26,27.61"/>
				<path class="st4" d="M185.85,387.48c-8.44,10.03-17.11,19.84-25.72,29.71"/>
				<path class="st4" d="M185.85,387.48c-8.47,10.28-16.73,20.74-24.9,31.27"/>
				<path class="st4" d="M185.85,387.48c-8.24,10.96-16.31,22.04-24.29,33.19"/>
				<path class="st4" d="M185.85,387.48c-8.17,11.73-16.22,23.54-24.19,35.41"/>
				<path class="st4" d="M185.85,387.48c-8.12,13.07-16.27,26.13-24.43,39.19"/>
				<path class="st4" d="M185.85,387.48c-9.6,16.22-19.11,32.51-28.55,48.81"/>
				<path class="st4" d="M185.85,387.48c-9.24,18.25-19.55,35.92-29.04,54.05"/>
				<path class="st4" d="M185.85,387.48c-9.65,19.8-19.31,39.59-28.96,59.39"/>
				<path class="st4" d="M185.85,387.48c-9.68,21.32-18.47,43.03-28.36,64.25"/>
				<path class="st4" d="M185.85,387.48c-11.5,22.67-20.01,47.21-28.9,70.98"/>
				<path class="st4" d="M185.85,387.48c-10.44,26.02-19,52.74-28.39,79.15"/>
				<path class="st4" d="M185.85,387.48c-10.4,28.36-18.79,57.4-27.91,86.18"/>
				<path class="st4" d="M185.85,387.48c-9.64,33.62-19.28,67.23-28.91,100.85"/>
				<path class="st4" d="M185.85,387.48c-10.86,38.95-17.12,79-29.04,116.45"/>
				<path class="st4" d="M185.85,387.48c-9.61,45.21-19.63,89.02-28.4,133.59"/>
				<path class="st4" d="M185.85,387.48c-8.36,43.96-15.87,89.02-23.57,133.64"/>
				<path class="st4" d="M185.85,387.48c-5.86,45.21-12.12,89.02-18.82,133.95"/>
				<path class="st4" d="M185.85,387.48c-5.86,45.21-8.36,89.02-14.09,134.1"/>
				<path class="st4" d="M185.85,387.48c-3.35,45.21-5.86,89.02-9.37,134.08"/>
				<path class="st4" d="M185.85,387.48c-2.1,45.21-3.35,90.27-4.71,134.76"/>
			</g>
		</g>
		<line class="st1" x1="184.02" y1="388.27" x2="237.88" y2="388.58"/>
		<line class="st1" x1="179.53" y1="387.52" x2="419.95" y2="387.52"/>
		<path class="st5" d="M442,246.1c0,0-276.76-3.09-280.68-1.84c-1.54,48.83-0.07,281.55-0.21,283.05
			c0.98-0.21,280.51,0.96,280.89,0.9C441.36,526.76,442.07,261.57,442,246.1z M300.96,500.84c-64.07,0-116-51.94-116-116
			c0-64.07,51.94-116,116-116c64.07,0,116,51.94,116,116C416.98,448.9,365.03,500.84,300.96,500.84z"/>
	</g>
	<circle class="st6" cx="216.01" cy="322.61" r="49.23"/>
	<g>
		<path class="st7" d="M181.98,325.17c-0.8,0.36-1.74,0.55-2.79,0.55c-0.95,0-1.84-0.16-2.65-0.48c-0.81-0.31-1.51-0.76-2.12-1.34
			c-0.6-0.58-1.06-1.28-1.4-2.08c-0.34-0.8-0.51-1.69-0.51-2.67c0-0.99,0.18-1.89,0.51-2.7s0.83-1.49,1.43-2.07
			c0.61-0.56,1.31-1,2.14-1.3c0.81-0.3,1.7-0.45,2.64-0.45c0.88,0,1.74,0.15,2.59,0.46c0.85,0.31,1.53,0.76,2.07,1.35l-2.03,2.03
			c-0.28-0.39-0.65-0.68-1.1-0.86s-0.93-0.28-1.4-0.28c-0.53,0-1,0.1-1.44,0.29c-0.44,0.19-0.81,0.46-1.13,0.8s-0.56,0.74-0.74,1.2
			s-0.26,0.96-0.26,1.51c0,0.56,0.09,1.08,0.26,1.54c0.18,0.46,0.41,0.86,0.73,1.2c0.31,0.34,0.68,0.59,1.11,0.78
			s0.9,0.28,1.41,0.28c0.6,0,1.11-0.11,1.56-0.35s0.8-0.54,1.06-0.91l2.09,1.97C183.46,324.31,182.78,324.81,181.98,325.17z"/>
		<path class="st7" d="M198.45,319.14c0,0.98-0.16,1.88-0.51,2.69c-0.34,0.81-0.81,1.5-1.41,2.09c-0.6,0.58-1.31,1.03-2.14,1.34
			c-0.83,0.31-1.73,0.48-2.7,0.48s-1.86-0.16-2.69-0.48c-0.83-0.31-1.54-0.76-2.14-1.34c-0.6-0.58-1.08-1.28-1.41-2.09
			c-0.34-0.81-0.51-1.71-0.51-2.69c0-0.99,0.18-1.89,0.51-2.69c0.34-0.8,0.81-1.48,1.41-2.04c0.6-0.56,1.31-0.99,2.14-1.3
			c0.83-0.3,1.71-0.45,2.69-0.45c0.96,0,1.86,0.15,2.7,0.45c0.83,0.3,1.54,0.74,2.14,1.3c0.6,0.56,1.08,1.24,1.41,2.04
			C198.28,317.25,198.45,318.14,198.45,319.14z M195.25,319.14c0-0.54-0.09-1.04-0.26-1.5c-0.18-0.46-0.41-0.86-0.73-1.2
			c-0.31-0.34-0.69-0.6-1.13-0.79c-0.44-0.19-0.93-0.29-1.45-0.29c-0.53,0-1,0.1-1.44,0.29c-0.43,0.19-0.8,0.45-1.13,0.79
			c-0.31,0.34-0.56,0.74-0.73,1.2c-0.18,0.46-0.25,0.98-0.25,1.5c0,0.56,0.09,1.08,0.26,1.55c0.18,0.48,0.41,0.88,0.73,1.21
			s0.68,0.6,1.11,0.8c0.44,0.19,0.91,0.29,1.44,0.29c0.53,0,1-0.1,1.44-0.29c0.44-0.19,0.8-0.46,1.13-0.8
			c0.33-0.34,0.56-0.74,0.74-1.21C195.16,320.22,195.25,319.69,195.25,319.14z"/>
		<path class="st7" d="M207.21,316.21c-0.26-0.33-0.59-0.59-1-0.78c-0.41-0.19-0.81-0.29-1.2-0.29c-0.2,0-0.4,0.01-0.6,0.05
			c-0.2,0.04-0.39,0.1-0.55,0.2c-0.16,0.1-0.3,0.23-0.41,0.39s-0.16,0.36-0.16,0.6c0,0.21,0.04,0.39,0.13,0.53
			c0.09,0.14,0.21,0.26,0.39,0.36c0.16,0.1,0.38,0.2,0.6,0.29c0.23,0.09,0.5,0.18,0.79,0.28c0.43,0.14,0.86,0.3,1.31,0.46
			c0.45,0.18,0.88,0.4,1.24,0.68c0.36,0.28,0.69,0.63,0.93,1.04c0.24,0.41,0.36,0.93,0.36,1.55c0,0.71-0.13,1.33-0.39,1.85
			c-0.26,0.53-0.61,0.95-1.06,1.29c-0.45,0.34-0.95,0.59-1.53,0.75c-0.58,0.16-1.16,0.25-1.76,0.25c-0.89,0-1.75-0.15-2.58-0.46
			c-0.83-0.31-1.51-0.75-2.07-1.33l1.97-2c0.3,0.38,0.7,0.69,1.2,0.94c0.5,0.25,0.99,0.38,1.48,0.38c0.23,0,0.44-0.02,0.65-0.08
			c0.21-0.05,0.39-0.13,0.55-0.23c0.16-0.1,0.29-0.25,0.38-0.43c0.1-0.18,0.14-0.39,0.14-0.63s-0.06-0.44-0.18-0.6
			s-0.29-0.31-0.5-0.45c-0.21-0.14-0.49-0.26-0.8-0.36c-0.33-0.11-0.69-0.23-1.1-0.36c-0.4-0.13-0.79-0.28-1.16-0.45
			c-0.38-0.18-0.71-0.4-1.01-0.68c-0.3-0.28-0.54-0.61-0.71-1c-0.18-0.39-0.28-0.86-0.28-1.43c0-0.69,0.14-1.28,0.43-1.76
			c0.28-0.49,0.65-0.89,1.1-1.21c0.45-0.31,0.96-0.55,1.54-0.69c0.58-0.15,1.15-0.21,1.74-0.21c0.7,0,1.41,0.13,2.14,0.39
			c0.73,0.26,1.36,0.64,1.92,1.14L207.21,316.21z"/>
		<path class="st7" d="M219.65,325.39l-0.96-2.44h-4.81l-0.91,2.44h-3.25l5.21-12.4h2.9l5.16,12.4H219.65z M216.32,316.3l-1.58,4.26
			h3.12L216.32,316.3z"/>
		<path class="st7" d="M233.65,316.8c0,0.73-0.14,1.34-0.4,1.83c-0.26,0.5-0.63,0.9-1.09,1.2c-0.45,0.3-0.98,0.53-1.58,0.66
			s-1.21,0.21-1.85,0.21h-1.49v4.68h-2.99v-12.4h4.56c0.68,0,1.31,0.06,1.9,0.2c0.59,0.14,1.1,0.35,1.54,0.65
			c0.44,0.3,0.78,0.69,1.04,1.18C233.52,315.5,233.65,316.1,233.65,316.8z M230.66,316.83c0-0.29-0.06-0.53-0.18-0.71
			s-0.28-0.34-0.48-0.44c-0.2-0.1-0.43-0.18-0.68-0.21c-0.25-0.04-0.51-0.05-0.78-0.05h-1.31v2.93h1.26c0.28,0,0.55-0.03,0.8-0.08
			c0.26-0.05,0.49-0.13,0.69-0.25c0.2-0.11,0.36-0.28,0.48-0.46C230.59,317.35,230.66,317.11,230.66,316.83z"/>
		<path class="st7" d="M242.32,325.39l-2.69-4.92h-1.03v4.92h-2.93v-12.4h4.73c0.6,0,1.18,0.06,1.74,0.19
			c0.56,0.13,1.08,0.33,1.53,0.63c0.45,0.3,0.81,0.68,1.08,1.15c0.26,0.48,0.4,1.08,0.4,1.79c0,0.84-0.23,1.55-0.69,2.12
			s-1.09,0.98-1.89,1.23l3.24,5.31H242.32z M242.21,316.79c0-0.29-0.06-0.53-0.19-0.71c-0.13-0.18-0.28-0.33-0.48-0.43
			c-0.19-0.1-0.41-0.16-0.65-0.2c-0.24-0.04-0.48-0.05-0.7-0.05h-1.6v2.89h1.43c0.25,0,0.5-0.03,0.76-0.06s0.49-0.11,0.7-0.21
			c0.21-0.1,0.39-0.26,0.53-0.45C242.13,317.36,242.21,317.1,242.21,316.79z"/>
		<path class="st7" d="M260.46,319.14c0,0.98-0.16,1.88-0.51,2.69c-0.34,0.81-0.81,1.5-1.41,2.09c-0.6,0.58-1.31,1.03-2.14,1.34
			c-0.83,0.31-1.73,0.48-2.7,0.48c-0.98,0-1.86-0.16-2.69-0.48c-0.83-0.31-1.54-0.76-2.14-1.34c-0.6-0.58-1.08-1.28-1.41-2.09
			c-0.34-0.81-0.51-1.71-0.51-2.69c0-0.99,0.18-1.89,0.51-2.69c0.34-0.8,0.81-1.48,1.41-2.04c0.6-0.56,1.31-0.99,2.14-1.3
			c0.83-0.3,1.71-0.45,2.69-0.45c0.96,0,1.86,0.15,2.7,0.45c0.83,0.3,1.54,0.74,2.14,1.3c0.6,0.56,1.08,1.24,1.41,2.04
			C260.29,317.25,260.46,318.14,260.46,319.14z M257.25,319.14c0-0.54-0.09-1.04-0.26-1.5c-0.18-0.46-0.41-0.86-0.73-1.2
			c-0.31-0.34-0.69-0.6-1.13-0.79s-0.93-0.29-1.45-0.29s-1,0.1-1.44,0.29c-0.43,0.19-0.8,0.45-1.13,0.79
			c-0.31,0.34-0.56,0.74-0.73,1.2c-0.18,0.46-0.25,0.98-0.25,1.5c0,0.56,0.09,1.08,0.26,1.55c0.18,0.48,0.41,0.88,0.73,1.21
			s0.68,0.6,1.11,0.8c0.44,0.19,0.91,0.29,1.44,0.29c0.53,0,1-0.1,1.44-0.29c0.44-0.19,0.8-0.46,1.13-0.8
			c0.33-0.34,0.56-0.74,0.74-1.21C257.17,320.22,257.25,319.69,257.25,319.14z"/>
		<path class="st7" d="M217.76,340.42c0,0.98-0.16,1.88-0.51,2.69c-0.34,0.81-0.81,1.5-1.41,2.09c-0.6,0.58-1.31,1.03-2.14,1.34
			c-0.83,0.31-1.73,0.48-2.7,0.48c-0.98,0-1.86-0.16-2.69-0.48c-0.83-0.31-1.54-0.76-2.14-1.34c-0.6-0.58-1.08-1.28-1.41-2.09
			c-0.34-0.81-0.51-1.71-0.51-2.69c0-0.99,0.18-1.89,0.51-2.69c0.34-0.8,0.81-1.48,1.41-2.04c0.6-0.56,1.31-0.99,2.14-1.3
			c0.83-0.3,1.71-0.45,2.69-0.45c0.96,0,1.86,0.15,2.7,0.45c0.83,0.3,1.54,0.74,2.14,1.3c0.6,0.56,1.08,1.24,1.41,2.04
			C217.59,338.53,217.76,339.42,217.76,340.42z M214.55,340.42c0-0.54-0.09-1.04-0.26-1.5c-0.18-0.46-0.41-0.86-0.73-1.2
			s-0.69-0.6-1.13-0.79c-0.44-0.19-0.93-0.29-1.45-0.29c-0.53,0-1,0.1-1.44,0.29c-0.43,0.19-0.8,0.45-1.13,0.79
			c-0.31,0.34-0.56,0.74-0.73,1.2c-0.18,0.46-0.25,0.98-0.25,1.5c0,0.56,0.09,1.08,0.26,1.55c0.18,0.48,0.41,0.88,0.73,1.21
			s0.68,0.6,1.11,0.8c0.44,0.19,0.91,0.29,1.44,0.29s1-0.1,1.44-0.29c0.44-0.19,0.8-0.46,1.13-0.8c0.33-0.34,0.56-0.74,0.74-1.21
			C214.46,341.5,214.55,340.97,214.55,340.42z"/>
		<path class="st7" d="M225.44,341.41v5.26h-2.99v-5.26l-4.66-7.15h3.63l2.64,4.59l2.64-4.59h3.5L225.44,341.41z"/>
	</g>
	<rect x="158.44" y="242.97" class="st8" width="286.51" height="286.51"/>
</g>
</svg>
