<?xml version="1.0" encoding="utf-8"?><svg viewBox="0 0 512 512" xmlns="http://www.w3.org/2000/svg" xmlns:xlink="http://www.w3.org/1999/xlink"><style>:root>svg{display:none}:root>svg:target{display:block}</style><svg viewBox="0 0 158.667 158.667" id="forest" xmlns="http://www.w3.org/2000/svg"><path d="M49.638 106.74a2.014 2.014 0 11-4.028 0V83.695a2.015 2.015 0 114.028 0v23.045z" fill="#ff7526"/><path fill="#3ead26" d="M50.115 76.055h16.304L49.888 59.519h10.191L47.623 40.393 35.168 59.519h10.191L28.828 76.055h16.305L26.224 92.691h42.8z"/><path d="M47.623 40.393L35.168 59.519h10.19l-16.53 16.536h16.305L26.224 92.691H45.61v14.049c0 1.112.901 2.014 2.014 2.014V40.393z" opacity=".1" fill="#fff"/><path d="M108.69 103.104c0 1.042-.795 1.888-1.776 1.888s-1.776-.846-1.776-1.888V81.178c0-1.043.795-1.888 1.776-1.888s1.776.845 1.776 1.888v21.926z" fill="#ff7526"/><path fill="#3ead26" d="M109.111 74.017h14.381l-14.581-15.498h8.988l-10.985-17.926-10.986 17.926h8.988L90.335 74.017h14.382L88.039 89.61h37.75z"/><path d="M106.914 40.593L95.928 58.519h8.988L90.335 74.017h14.381L88.039 89.61h17.099v13.494c0 1.042.795 1.888 1.776 1.888V40.593z" opacity=".1" fill="#fff"/><path d="M75.48 112.23a1.705 1.705 0 11-3.411 0V91.48a1.705 1.705 0 013.411 0v20.75z" fill="#ff7526"/><path fill="#299113" d="M75.884 85.01h13.809L75.692 71.005h8.631L73.774 54.807 63.226 71.005h8.631L57.856 85.01h13.809L55.651 99.099h36.247z"/><path d="M73.774 54.807L63.226 71.005h8.631l-14 14.005h13.809L55.651 99.099h16.418v13.131c0 .942.763 1.705 1.705 1.705V54.807z" opacity=".1" fill="#fff"/><path d="M17.581 104.695a1.385 1.385 0 11-2.77 0V86.917a1.385 1.385 0 112.77 0v17.778z" fill="#ff7526"/><path fill="#299113" d="M17.909 81.662h11.214l-11.37-11.373h7.009l-8.566-13.156-8.567 13.156h7.009L3.268 81.662h11.214L1.477 93.104h29.438z"/><path d="M16.196 57.133L7.629 70.289h7.009L3.268 81.662h11.215L1.477 93.104h13.334v11.591c0 .765.62 1.385 1.385 1.385V57.133z" opacity=".1" fill="#fff"/><path d="M135.395 108.997a1.385 1.385 0 11-2.77 0V91.219a1.385 1.385 0 112.77 0v17.778z" fill="#ff7526"/><path fill="#299113" d="M135.723 85.964h11.215L135.567 74.59h7.009l-8.567-13.154-8.566 13.154h7.009l-11.371 11.374h11.215L119.29 97.407h29.439z"/><path d="M134.009 61.436l-8.566 13.154h7.009l-11.371 11.374h11.215L119.29 97.407h13.334v11.59c0 .766.62 1.386 1.385 1.386V61.436z" opacity=".1" fill="#fff"/><path d="M13.745 98.728C6.153 98.728 0 104.881 0 112.472h27.489c0-7.591-6.154-13.744-13.744-13.744z" fill="#3ead26"/><path d="M13.745 98.728C6.153 98.728 0 104.881 0 112.472h13.745V98.728z" opacity=".1" fill="#fff"/><path d="M33.911 102.698c-5.398 0-9.775 4.376-9.775 9.774h19.549c0-5.398-4.376-9.774-9.774-9.774z" fill="#3ead26"/><path d="M33.911 102.698c-5.398 0-9.775 4.376-9.775 9.774h9.775v-9.774z" opacity=".1" fill="#fff"/><path d="M22.604 102.707a9.766 9.766 0 00-9.766 9.766H32.37a9.766 9.766 0 00-9.766-9.766z" fill="#299113"/><path d="M22.604 102.707a9.766 9.766 0 00-9.766 9.766h9.766v-9.766z" opacity=".1" fill="#fff"/><path d="M147.253 101.788c6.304 0 11.414 5.109 11.414 11.413H135.84c0-6.304 5.11-11.413 11.413-11.413z" fill="#3ead26"/><path d="M147.253 101.788c6.304 0 11.414 5.109 11.414 11.413h-11.414v-11.413z" opacity=".1" fill="#fff"/><path d="M132.557 105.084a8.118 8.118 0 018.117 8.117H124.44a8.117 8.117 0 018.117-8.117z" fill="#3ead26"/><path d="M132.557 105.084a8.118 8.118 0 018.117 8.117h-8.117v-8.117z" opacity=".1" fill="#fff"/><path d="M141.946 105.091a8.109 8.109 0 018.109 8.109h-16.219a8.11 8.11 0 018.11-8.109z" fill="#299113"/><path d="M141.946 105.091a8.109 8.109 0 018.109 8.109h-8.109v-8.109z" opacity=".1" fill="#fff"/><path d="M84.826 105.834c6.871 0 12.44 5.57 12.44 12.44H72.385c0-6.87 5.57-12.44 12.441-12.44z" fill="#3ead26"/><path d="M84.826 105.834c6.871 0 12.44 5.57 12.44 12.44h-12.44v-12.44z" opacity=".1" fill="#fff"/><path d="M68.806 109.427a8.847 8.847 0 018.847 8.847H59.959a8.847 8.847 0 018.847-8.847z" fill="#3ead26"/><path d="M68.806 109.427a8.847 8.847 0 018.847 8.847h-8.847v-8.847z" opacity=".1" fill="#fff"/><path d="M79.04 109.435a8.839 8.839 0 018.839 8.839H70.201a8.839 8.839 0 018.839-8.839z" fill="#299113"/><path d="M79.04 109.435a8.839 8.839 0 018.839 8.839H79.04v-8.839z" opacity=".1" fill="#fff"/></svg><svg viewBox="0 0 512 512" id="hammer" xmlns="http://www.w3.org/2000/svg"><path d="M0 512h176.552V0H0v512z" fill="#998373"/><g fill="#514439"><path d="M132.414 114.759c-5.297 0-8.828-3.531-8.828-8.828V8.828c0-5.297 3.531-8.828 8.828-8.828 5.297 0 8.828 3.531 8.828 8.828v97.103c-.001 5.297-3.532 8.828-8.828 8.828m0 264.827c-5.297 0-8.828-3.531-8.828-8.828v-70.621c0-5.297 3.531-8.828 8.828-8.828 5.297 0 8.828 3.531 8.828 8.828v70.621c-.001 5.297-3.532 8.828-8.828 8.828m0 132.414c-5.297 0-8.828-3.531-8.828-8.828v-97.103c0-5.297 3.531-8.828 8.828-8.828 5.297 0 8.828 3.531 8.828 8.828v97.103c-.001 5.297-3.532 8.828-8.828 8.828M88.276 52.966c-5.297 0-8.828-3.531-8.828-8.828V8.828C79.448 3.531 82.979 0 88.276 0s8.828 3.531 8.828 8.828v35.31c-.001 5.296-3.532 8.828-8.828 8.828m-44.138 61.793c-5.297 0-8.828-3.531-8.828-8.828V8.828C35.31 3.531 38.841 0 44.138 0s8.828 3.531 8.828 8.828v97.103c0 5.297-3.532 8.828-8.828 8.828m44.138 308.965c-5.297 0-8.828-3.531-8.828-8.828v-61.793c0-5.297 3.531-8.828 8.828-8.828s8.828 3.531 8.828 8.828v61.793c-.001 5.297-3.532 8.828-8.828 8.828m0 88.276c-5.297 0-8.828-3.531-8.828-8.828v-44.138c0-5.297 3.531-8.828 8.828-8.828s8.828 3.531 8.828 8.828v44.138c-.001 5.297-3.532 8.828-8.828 8.828m0-317.793c9.71 0 17.655-7.945 17.655-17.655s-7.945-17.655-17.655-17.655-17.655 7.945-17.655 17.655 7.945 17.655 17.655 17.655"/><path d="M132.414 264.828c-5.297 0-8.828-3.531-8.828-8.828v-79.448c0-19.421-15.89-35.31-35.31-35.31-5.297 0-8.828-3.531-8.828-8.828v-35.31c0-5.297 3.531-8.828 8.828-8.828s8.828 3.531 8.828 8.828v27.366c24.717 4.414 44.138 25.6 44.138 52.083V256c-.001 5.297-3.532 8.828-8.828 8.828m-44.138 52.965c-5.297 0-8.828-3.531-8.828-8.828v-80.331c-24.717-4.414-44.138-25.6-44.138-52.083v-26.483c0-5.297 3.531-8.828 8.828-8.828s8.828 3.531 8.828 8.828v26.483c0 19.421 15.89 35.31 35.31 35.31 5.297 0 8.828 3.531 8.828 8.828v88.276c-.001 5.297-3.532 8.828-8.828 8.828m-44.138 26.483c-5.297 0-8.828-3.531-8.828-8.828v-88.276c0-5.297 3.531-8.828 8.828-8.828s8.828 3.531 8.828 8.828v88.276c0 5.297-3.532 8.828-8.828 8.828m0 167.724c-5.297 0-8.828-3.531-8.828-8.828v-61.793c0-5.297 3.531-8.828 8.828-8.828s8.828 3.531 8.828 8.828v61.793c0 5.297-3.532 8.828-8.828 8.828m0-105.931c-5.297 0-8.828-3.531-8.828-8.828v-17.655c0-5.297 3.531-8.828 8.828-8.828s8.828 3.531 8.828 8.828v17.655c0 5.297-3.532 8.828-8.828 8.828"/></g><path d="M308.966 247.172h70.621V141.241h-70.621v105.931z" fill="#7f7c79"/><path d="M308.966 141.241h61.793c11.476 0 22.952-3.531 31.779-10.593 13.241-9.71 13.241-15.89 29.131-15.89 5.297 0 9.71 4.414 9.71 8.828s4.414 8.828 8.828 8.828h44.138c9.71 0 17.655-7.945 17.655-17.655V52.966c0-9.71-7.945-17.655-17.655-17.655h-44.138c-4.414 0-8.828 3.531-8.828 8.828s-4.414 8.828-8.828 8.828c-16.772 0-16.772-5.297-30.014-15.89-8.828-7.062-20.303-10.593-31.779-10.593h-52.966c-43.255 0-84.745 27.366-109.462 62.676l-5.297 7.945c.002-.002 105.933-38.843 105.933 44.136m0 105.931v238.345c0 15.007 11.476 26.483 26.483 26.483h17.655c15.007 0 26.483-11.476 26.483-26.483V247.172h-70.621z" fill="#565656"/><path d="M335.448 423.724h-26.483v17.655h26.483c5.297 0 8.828-3.531 8.828-8.828s-4.414-8.827-8.828-8.827m0 35.31h-26.483v17.655h26.483c5.297 0 8.828-3.531 8.828-8.828s-4.414-8.827-8.828-8.827" fill="#7f7c79"/></svg><svg viewBox="0 0 512 512" id="house" xmlns="http://www.w3.org/2000/svg"><path fill="#5b5d6e" d="M361.93 46.885h52.966v70.62H361.93z"/><path fill="#ff6464" d="M494.345 170.472L256 46.885 17.655 170.472v308.965h476.69z"/><path d="M494.345 170.472l-17.655-9.156v318.121h17.655zm-476.69 0v308.965H35.31V161.316z" fill="#e4eaf6"/><path fill="#b4e1fa" d="M105.93 232.26h105.93V373.5H105.93z"/><g fill="#a0d2f0"><path d="M105.93 232.26h105.93v26.483H105.93z"/><path d="M114.759 232.265h-8.828v62.773l44.138 78.468h44.138z"/></g><path fill="#daf0fd" d="M211.862 310.732l-44.138-78.467h-26.483l70.621 125.548z"/><path fill="#b4e1fa" d="M182.621 258.747l-14.897-26.482h-26.483l14.897 26.482z"/><path d="M220.69 364.678V232.265a8.826 8.826 0 00-8.828-8.828H105.931a8.826 8.826 0 00-8.828 8.828v132.414a8.829 8.829 0 000 17.656H220.69a8.829 8.829 0 000-17.657zm-61.793-123.586h44.138v52.965h-88.276v-52.966l44.138.001zm-44.138 123.586v-52.966h88.276v52.966h-88.276z" fill="#fff"/><path fill="#c7cfe2" d="M17.655 170.472v31.672l17.655-9.203L256 78.792l220.69 114.221 17.655 9.131v-31.672L256 46.885z"/><path d="M243.833 26.696L6.91 149.242A12.781 12.781 0 000 160.596v13.644c0 6.334 6.709 10.417 12.334 7.507L256 55.713l243.666 126.034c5.625 2.91 12.334-1.173 12.334-7.507v-13.644a12.78 12.78 0 00-6.91-11.353L268.167 26.696a26.484 26.484 0 00-24.334 0z" fill="#707487"/><path fill="#c7cfe2" d="M17.655 426.47h476.69v44.14H17.655z"/><path fill="#e4eaf6" d="M282.48 232.26h141.24v247.17H282.48z"/><path fill="#b4e1fa" d="M317.79 267.57h70.62V373.5h-70.62z"/><g fill="#a0d2f0"><path d="M317.79 267.57h70.62v26.483h-70.62z"/><path d="M317.793 373.506h59.586l-59.586-105.931z"/></g><path fill="#daf0fd" d="M388.414 267.575h-44.138l44.138 78.467z"/><path fill="#b4e1fa" d="M359.172 294.058h29.242v-26.483h-44.138z"/><g fill="#fff"><path d="M423.724 488.265H282.483a8.829 8.829 0 01-8.828-8.828V232.265a8.829 8.829 0 018.828-8.828h141.241a8.829 8.829 0 018.828 8.828v247.172a8.829 8.829 0 01-8.828 8.828zM291.31 470.61h123.586V241.092H291.31V470.61z"/><path d="M388.414 382.334h-70.621a8.826 8.826 0 01-8.828-8.828V267.575a8.826 8.826 0 018.828-8.828h70.621a8.826 8.826 0 018.828 8.828v105.931a8.827 8.827 0 01-8.828 8.828zm-61.793-17.656h52.966v-88.276h-52.966v88.276z"/></g><path d="M507.586 488.265H4.414A4.414 4.414 0 010 483.851v-8.828a4.414 4.414 0 014.414-4.414h503.172a4.414 4.414 0 014.414 4.414v8.828a4.414 4.414 0 01-4.414 4.414z" fill="#8f96ac"/><path d="M419.31 55.713h-61.793a4.414 4.414 0 01-4.414-4.414v-8.828a4.414 4.414 0 014.414-4.414h61.793a4.414 4.414 0 014.414 4.414v8.828a4.414 4.414 0 01-4.414 4.414z" fill="#6f7589"/></svg></svg>